<?xml version="1.0" standalone="no"?>
<!DOCTYPE svg PUBLIC "-//W3C//DTD SVG 20010904//EN"
 "http://www.w3.org/TR/2001/REC-SVG-20010904/DTD/svg10.dtd">
<svg version="1.0" xmlns="http://www.w3.org/2000/svg"
 width="198.000000pt" height="198.000000pt" viewBox="0 0 198.000000 198.000000"
 preserveAspectRatio="xMidYMid meet">
<metadata>
Created by potrace 1.14, written by Peter Selinger 2001-2017
</metadata>
<g transform="translate(0.000000,198.000000) scale(0.100000,-0.100000)"
fill="#000000" stroke="none">
<path d="M0 985 l0 -945 990 0 990 0 0 945 0 945 -990 0 -990 0 0 -945z m1173
770 c131 -17 285 -95 399 -203 119 -112 194 -236 234 -383 21 -79 24 -288 5
-374 -51 -232 -240 -458 -467 -558 -59 -26 -163 -52 -234 -59 l-35 -3 0 75 0
75 33 3 32 3 0 639 0 639 -35 7 -35 6 0 67 c0 75 3 83 34 76 12 -2 42 -7 69
-10z m-243 -786 l0 -792 -61 7 c-34 3 -68 11 -76 17 -11 10 -13 74 -13 343 0
182 0 337 0 344 0 10 -48 12 -222 10 l-223 -3 3 -39 c8 -102 84 -245 180 -340
l63 -63 -47 -57 -47 -58 -64 64 c-169 165 -252 374 -240 608 7 146 20 196 86
328 67 137 205 274 346 343 89 43 207 78 273 78 l42 1 0 -791z"/>
<path d="M1290 970 c0 -329 4 -590 9 -590 5 0 42 22 82 48 201 132 315 360
295 593 -12 150 -71 281 -175 391 -61 65 -172 148 -198 148 -10 0 -13 -123
-13 -590z"/>
<path d="M679 1548 c-157 -78 -294 -250 -334 -419 -8 -35 -15 -67 -15 -71 0
-5 101 -8 225 -8 l225 0 0 270 c0 150 -4 270 -9 270 -5 0 -46 -19 -92 -42z"/>
</g>
</svg>
